<svg id="Layer_1" data-name="Layer 1" xmlns="http://www.w3.org/2000/svg" viewBox="0 0 71.29 89.49"><defs><style>.cls-1{fill:#68e0d8;}.cls-2{fill:none;stroke:#68e0d8;stroke-miterlimit:10;stroke-width:5px;}</style></defs><path class="cls-1" d="M21.84,79.57c.05.54.27,1,.87,1s.79-.36.79-.85-.27-.85-1.09-1.24c-1.12-.53-1.56-1-1.56-2a1.67,1.67,0,0,1,1.85-1.76,1.69,1.69,0,0,1,1.85,1.84H23.41c0-.37-.14-.92-.73-.92s-.67.3-.67.74.21.69,1,1c1.17.54,1.69,1.06,1.69,2.16a1.8,1.8,0,0,1-2,1.87,1.82,1.82,0,0,1-2-1.94Z" transform="translate(-18.1 -15.17)"/><path class="cls-1" d="M28.74,78.5H26.65v1.89H29l-.14,1H25.5V74.87h3.34v1H26.65v1.58h2.09Z" transform="translate(-18.1 -15.17)"/><path class="cls-1" d="M29.71,74.87h1.17V80.4h2.24l-.12,1H29.71Z" transform="translate(-18.1 -15.17)"/><path class="cls-1" d="M36.94,78.5H34.85v1.89H37.2l-.14,1H33.7V74.87H37v1H34.85v1.58h2.09Z" transform="translate(-18.1 -15.17)"/><path class="cls-1" d="M41.77,79.5a1.93,1.93,0,0,1-2,2c-1.85,0-2.07-1.63-2.07-3.38,0-2.12.62-3.36,2.14-3.36a1.83,1.83,0,0,1,1.89,2H40.62c0-.22,0-1-.76-1s-.91.9-.91,2.39c0,1.23.12,2.39.88,2.39s.75-.79.78-1Z" transform="translate(-18.1 -15.17)"/><path class="cls-1" d="M43.53,75.9h-1.4v-1h4v1H44.7v5.5H43.53Z" transform="translate(-18.1 -15.17)"/><path class="cls-1" d="M48.51,74.87h1.7c1.68,0,2.33,1.08,2.33,3.13,0,2.2-.62,3.4-2.42,3.4H48.51Zm1.18,5.57h.42c.91,0,1.23-.68,1.23-2.43,0-1.51-.28-2.17-1.22-2.17h-.43Z" transform="translate(-18.1 -15.17)"/><path class="cls-1" d="M54.38,79.75l-.32,1.65H52.89l1.51-6.53h1.51l1.53,6.53H56.22l-.33-1.65Zm1.3-1c-.24-1.25-.44-2.16-.54-2.78h0c-.08.6-.28,1.58-.52,2.78Z" transform="translate(-18.1 -15.17)"/><path class="cls-1" d="M58.41,75.9H57v-1h4v1h-1.4v5.5H58.41Z" transform="translate(-18.1 -15.17)"/><path class="cls-1" d="M62.07,79.75l-.32,1.65H60.58l1.51-6.53H63.6l1.53,6.53H63.9l-.32-1.65Zm1.3-1c-.24-1.25-.44-2.16-.54-2.78h0c-.08.6-.28,1.58-.52,2.78Z" transform="translate(-18.1 -15.17)"/><path class="cls-1" d="M67.53,74.87h3.35v1H68.69v1.67h2.07v1H68.69V81.4H67.53Z" transform="translate(-18.1 -15.17)"/><path class="cls-1" d="M72.77,78.61V81.4H71.61V74.87h2a1.65,1.65,0,0,1,1.86,1.78,1.46,1.46,0,0,1-.85,1.49c.51.24.74.67.74,1.63V80a8,8,0,0,0,.09,1.37H74.32A5.7,5.7,0,0,1,74.21,80v-.24c0-.87-.2-1.17-.94-1.17Zm0-.94h.55c.7,0,1-.31,1-1a.78.78,0,0,0-.87-.89h-.66Z" transform="translate(-18.1 -15.17)"/><path class="cls-1" d="M80.43,78.08c0,2.39-.65,3.43-2.16,3.43s-2.09-1-2.09-3.44.8-3.3,2.15-3.3S80.43,75.82,80.43,78.08Zm-3.05,0c0,1.55.24,2.47.92,2.47s.93-.85.93-2.47-.22-2.3-.93-2.3S77.38,76.61,77.38,78.06Z" transform="translate(-18.1 -15.17)"/><path class="cls-1" d="M85.35,79c0-1.11,0-2.39,0-3.13h0c-.23,1.24-.59,3.44-1,5.56h-1c-.32-2-.69-4.31-.9-5.57h0c0,.76.07,2.12.07,3.25V81.4H81.36V74.87h1.75c.34,1.81.64,3.63.77,4.58h0c.13-.89.54-2.85.88-4.58h1.7V81.4H85.35Z" transform="translate(-18.1 -15.17)"/><path class="cls-1" d="M19.49,87.47H18.1v-1h4v1h-1.4V93H19.49Z" transform="translate(-18.1 -15.17)"/><path class="cls-1" d="M22.7,86.45h1.17V89h1.57V86.45h1.17V93H25.44V90H23.87V93H22.7Z" transform="translate(-18.1 -15.17)"/><path class="cls-1" d="M31,90.07H28.9V92h2.35l-.14,1H27.75V86.45H31.1v1H28.9v1.59H31Z" transform="translate(-18.1 -15.17)"/><path class="cls-1" d="M34.67,87.47h-1.4v-1h4v1H35.84V93H34.67Z" transform="translate(-18.1 -15.17)"/><path class="cls-1" d="M38.32,91.33,38,93H36.83l1.51-6.52h1.52L41.38,93H40.16l-.33-1.64Zm1.31-1c-.25-1.25-.44-2.16-.55-2.79h0c-.08.6-.29,1.58-.53,2.79Z" transform="translate(-18.1 -15.17)"/><path class="cls-1" d="M41.93,86.45h2a1.56,1.56,0,0,1,1.76,1.65,1.31,1.31,0,0,1-.76,1.36,1.54,1.54,0,0,1,.94,1.59,1.8,1.8,0,0,1-2,1.92h-2Zm1.71,2.6c.73,0,.92-.28.92-.84s-.3-.83-.88-.83h-.6v1.67Zm-.56,3h.69c.59,0,.92-.3.92-1s-.28-1.07-1-1.07h-.57Z" transform="translate(-18.1 -15.17)"/><path class="cls-1" d="M46.67,86.45h1.17V92h2.23L50,93H46.67Z" transform="translate(-18.1 -15.17)"/><path class="cls-1" d="M53.9,90.07H51.8V92h2.36L54,93H50.65V86.45H54v1H51.8v1.59h2.1Z" transform="translate(-18.1 -15.17)"/><path class="cls-1" d="M57.57,87.47h-1.4v-1h4v1H58.74V93H57.57Z" transform="translate(-18.1 -15.17)"/><path class="cls-1" d="M64.64,89.66c0,2.39-.65,3.43-2.15,3.43s-2.09-1-2.09-3.44.79-3.31,2.14-3.31S64.64,87.4,64.64,89.66Zm-3,0c0,1.55.24,2.47.92,2.47s.93-.86.93-2.47-.22-2.31-.93-2.31S61.59,88.18,61.59,89.64Z" transform="translate(-18.1 -15.17)"/><path class="cls-1" d="M68.33,91.33,68,93H66.83l1.51-6.52h1.52L71.39,93H70.16l-.32-1.64Zm1.3-1c-.25-1.25-.44-2.16-.54-2.79h0c-.08.6-.29,1.58-.53,2.79Z" transform="translate(-18.1 -15.17)"/><path class="cls-1" d="M71.94,86.45h1.7c1.68,0,2.33,1.07,2.33,3.13S75.35,93,73.55,93H71.94ZM73.12,92h.42c.91,0,1.23-.69,1.23-2.44,0-1.5-.28-2.16-1.22-2.16h-.43Z" transform="translate(-18.1 -15.17)"/><path class="cls-1" d="M76.88,86.45h1.7c1.68,0,2.33,1.07,2.33,3.13S80.29,93,78.49,93H76.88ZM78.06,92h.42c.91,0,1.22-.69,1.22-2.44,0-1.5-.28-2.16-1.21-2.16h-.43Z" transform="translate(-18.1 -15.17)"/><path class="cls-1" d="M84.78,86.45V93H83.61V86.45Z" transform="translate(-18.1 -15.17)"/><path class="cls-1" d="M86.83,87.47h-1.4v-1h4v1H88V93H86.83Z" transform="translate(-18.1 -15.17)"/><path class="cls-1" d="M29.45,99.05H28.06V98h4v1h-1.4v5.5H29.45Z" transform="translate(-18.1 -15.17)"/><path class="cls-1" d="M36.52,101.24c0,2.38-.64,3.42-2.15,3.42s-2.09-1-2.09-3.44.8-3.3,2.15-3.3S36.52,99,36.52,101.24Zm-3,0c0,1.55.23,2.47.92,2.47s.93-.85.93-2.46-.22-2.31-.93-2.31S33.48,99.76,33.48,101.21Z" transform="translate(-18.1 -15.17)"/><path class="cls-1" d="M40.11,99.05H38.72V98h4v1h-1.4v5.5H40.11Z" transform="translate(-18.1 -15.17)"/><path class="cls-1" d="M43.32,98h1.17v2.58h1.57V98h1.17v6.53H46.06v-2.93H44.49v2.93H43.32Z" transform="translate(-18.1 -15.17)"/><path class="cls-1" d="M51.62,101.65h-2.1v1.89h2.35l-.14,1H48.37V98h3.35v1h-2.2v1.59h2.1Z" transform="translate(-18.1 -15.17)"/><path class="cls-1" d="M58.29,104.55H57.4a5,5,0,0,1-.06-.56,1.32,1.32,0,0,1-1.29.67c-1.37,0-1.86-1.21-1.86-3.33,0-2.38.8-3.41,2.21-3.41a1.79,1.79,0,0,1,1.88,1.9H57.13c0-.26-.08-.91-.77-.91s-1,1-1,2.42.18,2.35.92,2.35.81-.47.81-1.43v-.37h-.88v-1h2Z" transform="translate(-18.1 -15.17)"/><path class="cls-1" d="M60.46,101.77v2.78H59.3V98h2a1.65,1.65,0,0,1,1.86,1.79,1.46,1.46,0,0,1-.85,1.48c.51.24.74.67.74,1.63v.26a8,8,0,0,0,.09,1.37H62a5.7,5.7,0,0,1-.11-1.38v-.24c0-.87-.2-1.16-.94-1.16Zm0-1H61c.7,0,1-.3,1-1a.78.78,0,0,0-.87-.89h-.66Z" transform="translate(-18.1 -15.17)"/><path class="cls-1" d="M65.12,102.91l-.33,1.64H63.62L65.13,98h1.52l1.53,6.53H67l-.32-1.64Zm1.3-1c-.24-1.25-.44-2.16-.54-2.78h0c-.08.6-.29,1.58-.53,2.78Z" transform="translate(-18.1 -15.17)"/><path class="cls-1" d="M68.73,98h2a1.94,1.94,0,0,1-.09,3.88H69.9v2.65H68.73ZM69.9,101h.57c.65,0,.94-.32.94-1s-.34-1-.87-1H69.9Z" transform="translate(-18.1 -15.17)"/><path class="cls-1" d="M73.33,98H74.5v2.58h1.57V98h1.17v6.53H76.07v-2.93H74.5v2.93H73.33Z" transform="translate(-18.1 -15.17)"/><path class="cls-1" d="M78.07,104.55v-1.48h1.18v1.48Z" transform="translate(-18.1 -15.17)"/><polyline class="cls-2" points="39.12 2.5 52.17 2.5 52.17 41.19 39.12 41.19"/><polyline class="cls-2" points="32.17 41.19 19.12 41.19 19.12 2.5 32.17 2.5"/></svg>