<svg id="Layer_1" data-name="Layer 1" xmlns="http://www.w3.org/2000/svg" viewBox="0 0 81.48 102.23"><defs><style>.cls-1{fill:#fff;stroke:#824FDF;stroke-linecap:round;stroke-linejoin:round;stroke-width:5px;}.cls-2{fill:#824FDF;}</style></defs><path class="cls-1" d="M52,5.82,17,66.4a1.8,1.8,0,0,0,1.56,2.71h70a1.81,1.81,0,0,0,1.57-2.71L55.1,5.82A1.81,1.81,0,0,0,52,5.82Z" transform="translate(-12.55 -2.42)"/><path class="cls-2" d="M58.3,24.3c-1.19-1.19-4.76-1.19-4.76-1.19s-3.57,0-4.76,1.19S50,49.28,50,51.66,53.54,54,53.54,54s3.57,0,3.57-2.38S59.49,25.49,58.3,24.3Z" transform="translate(-12.55 -2.42)"/><path class="cls-2" d="M56.57,57.15c-.33-.63-1.33-.74-3-.74s-2.7.11-3,.74-.47,4,.1,4.78,2.94.71,2.94.71,2.37.07,2.94-.71S56.91,57.77,56.57,57.15Z" transform="translate(-12.55 -2.42)"/><path class="cls-2" d="M14,75.72h-1.4v-1h4v1h-1.4v5.53H14Z" transform="translate(-12.55 -2.42)"/><path class="cls-2" d="M17.17,74.69h1.18v2.59h1.58V74.69h1.18v6.56H19.93v-3H18.35v3H17.17Z" transform="translate(-12.55 -2.42)"/><path class="cls-2" d="M25.52,78.33H23.41v1.91h2.37l-.15,1H22.25V74.69h3.37v1H23.41v1.59h2.11Z" transform="translate(-12.55 -2.42)"/><path class="cls-2" d="M27.66,78.45v2.8H26.49V74.69h2a1.65,1.65,0,0,1,1.87,1.79,1.49,1.49,0,0,1-.85,1.5c.51.23.75.67.75,1.63v.27a7,7,0,0,0,.09,1.37H29.22a5.23,5.23,0,0,1-.11-1.38v-.24c0-.88-.2-1.18-.95-1.18Zm0-1h.55c.71,0,1-.31,1-1a.78.78,0,0,0-.87-.89h-.67Z" transform="translate(-12.55 -2.42)"/><path class="cls-2" d="M34.53,78.33H32.42v1.91h2.37l-.14,1H31.26V74.69h3.37v1H32.42v1.59h2.11Z" transform="translate(-12.55 -2.42)"/><path class="cls-2" d="M38.13,81.25l-1.26-6.56h1.26c.24,1.55.55,3.69.65,4.92h0c.19-1.27.66-3.5.92-4.92h1c.25,1.29.72,3.61.89,4.86h0c.14-1.38.54-3.61.7-4.86h1.17l-1.33,6.56H41.05c-.26-1.37-.68-3.36-.86-4.63h0c-.19,1.29-.64,3.37-.89,4.63Z" transform="translate(-12.55 -2.42)"/><path class="cls-2" d="M44.85,79.6l-.33,1.65H43.34l1.52-6.56h1.53l1.54,6.56H46.69l-.32-1.65Zm1.31-1c-.25-1.26-.44-2.18-.55-2.8h0c-.08.6-.28,1.59-.52,2.8Z" transform="translate(-12.55 -2.42)"/><path class="cls-2" d="M49.51,79.41c.05.55.27,1,.87,1s.8-.36.8-.85-.27-.86-1.1-1.25c-1.12-.54-1.56-1-1.56-2a1.86,1.86,0,0,1,3.72.08H51.09c0-.38-.14-.93-.73-.93s-.67.3-.67.75.21.69,1,1c1.17.54,1.7,1.07,1.7,2.17a2,2,0,0,1-4-.07Z" transform="translate(-12.55 -2.42)"/><path class="cls-2" d="M56,79.6l-.32,1.65H54.49L56,74.69h1.53l1.53,6.56H57.84l-.33-1.65Zm1.31-1c-.24-1.26-.44-2.18-.54-2.8h0c-.08.6-.29,1.59-.53,2.8Z" transform="translate(-12.55 -2.42)"/><path class="cls-2" d="M61.48,74.69h2a1.95,1.95,0,0,1-.09,3.89h-.71v2.67H61.48Zm1.18,3h.57c.66,0,1-.32,1-1s-.34-1-.88-1h-.64Z" transform="translate(-12.55 -2.42)"/><path class="cls-2" d="M67.27,78.45v2.8H66.1V74.69h2A1.65,1.65,0,0,1,70,76.48a1.49,1.49,0,0,1-.85,1.5c.51.23.75.67.75,1.63v.27A7,7,0,0,0,70,81.25H68.83a5.23,5.23,0,0,1-.11-1.38v-.24c0-.88-.2-1.18-1-1.18Zm0-1h.55c.71,0,1-.31,1-1a.78.78,0,0,0-.87-.89h-.67Z" transform="translate(-12.55 -2.42)"/><path class="cls-2" d="M75,77.92c0,2.4-.65,3.45-2.17,3.45s-2.1-1-2.1-3.46.8-3.33,2.16-3.33S75,75.64,75,77.92Zm-3.06,0c0,1.55.23,2.48.92,2.48s.94-.86.94-2.48-.23-2.32-.94-2.32S71.91,76.43,71.91,77.9Z" transform="translate(-12.55 -2.42)"/><path class="cls-2" d="M75.88,74.69h2a1.57,1.57,0,0,1,1.77,1.66,1.34,1.34,0,0,1-.76,1.37,1.55,1.55,0,0,1,1,1.6,1.81,1.81,0,0,1-2,1.93h-2Zm1.72,2.62c.73,0,.92-.29.92-.85s-.3-.84-.88-.84H77v1.69Zm-.57,3h.7c.59,0,.93-.3.93-1s-.28-1.08-1-1.08H77Z" transform="translate(-12.55 -2.42)"/><path class="cls-2" d="M80.64,74.69h1.18v5.56h2.25l-.12,1H80.64Z" transform="translate(-12.55 -2.42)"/><path class="cls-2" d="M87.92,78.33H85.81v1.91h2.37l-.15,1H84.65V74.69H88v1H85.81v1.59h2.11Z" transform="translate(-12.55 -2.42)"/><path class="cls-2" d="M92.9,78.81c0-1.12,0-2.4,0-3.15h0c-.23,1.25-.59,3.47-1,5.59H90.83c-.32-2-.7-4.33-.91-5.6h0c0,.76.07,2.14.07,3.27v2.33H88.88V74.69h1.75c.35,1.81.65,3.64.78,4.6h0c.13-.89.55-2.87.89-4.6H94v6.56H92.9Z" transform="translate(-12.55 -2.42)"/><path class="cls-2" d="M20.5,86.33h1.18v5.56h2.24l-.11,1H20.5Z" transform="translate(-12.55 -2.42)"/><path class="cls-2" d="M28.38,89.56c0,2.4-.65,3.45-2.17,3.45s-2.1-1-2.1-3.46.8-3.33,2.16-3.33S28.38,87.28,28.38,89.56Zm-3.06,0c0,1.55.23,2.48.92,2.48s.94-.86.94-2.48-.22-2.32-.94-2.32S25.32,88.07,25.32,89.54Z" transform="translate(-12.55 -2.42)"/><path class="cls-2" d="M30.23,91.24l-.32,1.65H28.73l1.52-6.56h1.52l1.54,6.56H32.08l-.33-1.65Zm1.31-1c-.24-1.26-.44-2.17-.54-2.8h0c-.08.6-.29,1.59-.53,2.8Z" transform="translate(-12.55 -2.42)"/><path class="cls-2" d="M33.87,86.33h1.71c1.69,0,2.34,1.08,2.34,3.15s-.62,3.41-2.43,3.41H33.87Zm1.19,5.6h.42c.91,0,1.23-.69,1.23-2.45,0-1.51-.28-2.17-1.22-2.17h-.43Z" transform="translate(-12.55 -2.42)"/><path class="cls-2" d="M40,86.33v6.56H38.84V86.33Z" transform="translate(-12.55 -2.42)"/><path class="cls-2" d="M41.17,92.89V86.33h1.34c1.36,3.63,1.62,4.32,1.7,4.64h0c-.06-.79-.06-1.75-.06-2.83V86.33h1.05v6.56H43.93C42.53,89,42.28,88.33,42.19,88h0c0,.81,0,1.77,0,3v1.91Z" transform="translate(-12.55 -2.42)"/><path class="cls-2" d="M50.24,92.89h-.9a3.31,3.31,0,0,1-.05-.55A1.35,1.35,0,0,1,48,93c-1.37,0-1.87-1.22-1.87-3.36,0-2.4.81-3.43,2.22-3.43a1.8,1.8,0,0,1,1.9,1.92H49.07c0-.27-.08-.92-.77-.92s-1,1-1,2.43.18,2.37.93,2.37.81-.48.81-1.44v-.37h-.88v-1h2.05Z" transform="translate(-12.55 -2.42)"/><path class="cls-2" d="M53.94,87.36h-1.4v-1h4v1h-1.4v5.53H53.94Z" transform="translate(-12.55 -2.42)"/><path class="cls-2" d="M57.16,86.33h1.18v2.59h1.58V86.33H61.1v6.56H59.92v-3H58.34v3H57.16Z" transform="translate(-12.55 -2.42)"/><path class="cls-2" d="M65.51,90h-2.1v1.9h2.36l-.14,1H62.24V86.33h3.37v1h-2.2V89h2.1Z" transform="translate(-12.55 -2.42)"/><path class="cls-2" d="M68.32,86.33H70c1.69,0,2.34,1.08,2.34,3.15s-.63,3.41-2.43,3.41H68.32Zm1.18,5.6h.42c.92,0,1.24-.69,1.24-2.45,0-1.51-.28-2.17-1.23-2.17H69.5Z" transform="translate(-12.55 -2.42)"/><path class="cls-2" d="M74.22,91.24l-.33,1.65H72.71l1.52-6.56h1.53l1.54,6.56H76.06l-.32-1.65Zm1.31-1c-.25-1.26-.44-2.17-.55-2.8h0c-.08.6-.29,1.59-.53,2.8Z" transform="translate(-12.55 -2.42)"/><path class="cls-2" d="M78.27,87.36h-1.4v-1h4v1h-1.4v5.53H78.27Z" transform="translate(-12.55 -2.42)"/><path class="cls-2" d="M82,91.24l-.33,1.65H80.45L82,86.33h1.52L85,92.89H83.8l-.33-1.65Zm1.31-1c-.25-1.26-.44-2.17-.54-2.8h0c-.08.6-.29,1.59-.53,2.8Z" transform="translate(-12.55 -2.42)"/><path class="cls-2" d="M85.72,92.9V91.41H86.9V92.9Z" transform="translate(-12.55 -2.42)"/><path class="cls-2" d="M20.54,98h2a1.95,1.95,0,0,1-.09,3.89h-.71v2.68H20.54Zm1.18,3h.58c.65,0,.94-.32.94-1s-.34-1-.88-1h-.64Z" transform="translate(-12.55 -2.42)"/><path class="cls-2" d="M25.16,98h1.18v5.56h2.25l-.12,1H25.16Z" transform="translate(-12.55 -2.42)"/><path class="cls-2" d="M32.44,101.62H30.33v1.9H32.7l-.15,1H29.17V98h3.37v1H30.33v1.6h2.11Z" transform="translate(-12.55 -2.42)"/><path class="cls-2" d="M34.64,102.88l-.32,1.66H33.14L34.66,98h1.52l1.54,6.57H36.49l-.33-1.66Zm1.31-1c-.24-1.25-.44-2.17-.54-2.8h0c-.08.6-.29,1.59-.53,2.8Z" transform="translate(-12.55 -2.42)"/><path class="cls-2" d="M39.3,102.7c.06.54.28,1,.88,1s.79-.36.79-.85-.26-.85-1.09-1.25c-1.13-.53-1.57-1-1.57-2a1.87,1.87,0,0,1,3.73.08H40.88c0-.37-.13-.93-.73-.93s-.67.3-.67.75.21.69,1,1c1.18.55,1.71,1.07,1.71,2.17a1.81,1.81,0,0,1-2,1.89,1.83,1.83,0,0,1-2-2Z" transform="translate(-12.55 -2.42)"/><path class="cls-2" d="M46.25,101.62H44.14v1.9h2.37l-.14,1H43V98h3.37v1H44.14v1.6h2.11Z" transform="translate(-12.55 -2.42)"/><path class="cls-2" d="M49.94,99h-1.4V98h4v1h-1.4v5.54H49.94Z" transform="translate(-12.55 -2.42)"/><path class="cls-2" d="M54.33,101.74v2.8H53.16V98h2A1.65,1.65,0,0,1,57,99.76a1.49,1.49,0,0,1-.85,1.5c.51.24.75.67.75,1.64v.26a7.1,7.1,0,0,0,.09,1.38H55.89a5.32,5.32,0,0,1-.11-1.39v-.24c0-.88-.2-1.17-1-1.17Zm0-1h.55c.71,0,1-.3,1-1a.78.78,0,0,0-.87-.89h-.67Z" transform="translate(-12.55 -2.42)"/><path class="cls-2" d="M59.05,104.54v-2.33a.56.56,0,0,0,0-.21l-1.66-4h1.32c.36,1,.81,2.3,1,3,.24-.8.69-2,1-3h1.24l-1.67,4a.54.54,0,0,0,0,.22v2.3Z" transform="translate(-12.55 -2.42)"/><path class="cls-2" d="M65.21,102.88l-.33,1.66H63.71L65.23,98h1.52l1.54,6.57H67.06l-.33-1.66Zm1.31-1c-.25-1.25-.44-2.17-.54-2.8h0c-.08.6-.29,1.59-.53,2.8Z" transform="translate(-12.55 -2.42)"/><path class="cls-2" d="M72.76,104.54h-.9a3.43,3.43,0,0,1,0-.56,1.35,1.35,0,0,1-1.31.67c-1.37,0-1.86-1.22-1.86-3.36,0-2.39.8-3.43,2.22-3.43a1.8,1.8,0,0,1,1.89,1.92H71.59c0-.27-.08-.92-.77-.92s-1,1-1,2.43.18,2.37.93,2.37.81-.47.81-1.44v-.37h-.88v-1h2.05Z" transform="translate(-12.55 -2.42)"/><path class="cls-2" d="M74.84,102.88l-.32,1.66H73.34L74.86,98h1.53l1.53,6.57H76.69l-.33-1.66Zm1.31-1c-.24-1.25-.44-2.17-.54-2.8h0c-.08.6-.29,1.59-.53,2.8Z" transform="translate(-12.55 -2.42)"/><path class="cls-2" d="M79.66,98v6.57H78.48V98Z" transform="translate(-12.55 -2.42)"/><path class="cls-2" d="M80.82,104.54V98h1.33c1.36,3.63,1.62,4.32,1.7,4.64h0c-.06-.79-.06-1.75-.06-2.83V98h1v6.57H83.57c-1.4-3.87-1.65-4.57-1.73-4.87h0c0,.81,0,1.77,0,3v1.92Z" transform="translate(-12.55 -2.42)"/><path class="cls-2" d="M85.67,104.54v-1.49h1.19v1.49Z" transform="translate(-12.55 -2.42)"/></svg>